<svg width="176" height="46" viewBox="0 0 176 46" fill="none" xmlns="http://www.w3.org/2000/svg">
<path d="M26.0625 36.6875H13.9688L10 46H0.25L21.9375 0.5H30.1562L36.125 46H26.8438L26.0625 36.6875ZM17.25 29.0312H25.4375L24.1562 12.9062L17.25 29.0312ZM50 46H41.0312L48.9375 0.5H57.9062L50 46ZM74.2188 29.375H69.6562L66.7812 46H57.8125L65.6875 0.5L79.4375 0.53125C83.5 0.65625 86.6146 1.90625 88.7812 4.28125C90.9479 6.65625 91.8646 9.89583 91.5312 14C91.0104 20.2292 88.1771 24.5625 83.0312 27L87.5938 45.5V46H77.9688L74.2188 29.375ZM70.9688 21.7188L75.6875 21.7812C77.8542 21.7396 79.5625 20.8854 80.8125 19.2188C82.0625 17.5312 82.6771 15.3021 82.6562 12.5312C82.5729 9.80208 81.375 8.35417 79.0625 8.1875L73.3438 8.15625L70.9688 21.7188ZM118.5 27.4375H104.656L101.438 46H92.4688L100.344 0.5H124.844L123.5 8.15625H108L105.969 19.8125H119.844L118.5 27.4375ZM131.688 46H122.719L130.625 0.5H139.594L131.688 46ZM173.719 8.15625H162.812L156.25 46H147.25L153.812 8.15625H143.062L144.406 0.5H175.062L173.719 8.15625Z" fill="black"/>
</svg>
